<?xml version="1.0" encoding="UTF-8"?>
<svg id="Layer_1" xmlns="http://www.w3.org/2000/svg" viewBox="0 0 283.46 141.73">
  <path d="M48.56,53.23c0-.57-.13-.66-.67-.66h-2.94c-.54,0-.67.1-.67.66v8.11h-6.02v-8.11c0-.57-.13-.66-.66-.66h-2.94c-.54,0-.67.1-.67.66v20.36c0,.57.13.66.67.66h2.94c.54,0,.66-.1.66-.66v-8.83h6.02v8.83c0,.57.13.66.67.66h2.94c.54,0,.67-.1.67-.66v-20.36h0ZM64.42,70.68c-.06-.13-.19-.25-.35-.25-.44,0-1.74,1.04-4.02,1.04-2.98,0-3.48-2.18-3.48-3.96h8.52c.6,0,.73-.19.73-.79,0-3.83-.95-8.64-6.33-8.64-4.24,0-6.93,3.48-6.93,8.52,0,5.83,2.91,8.2,7.09,8.2,2.5,0,5.67-1.04,5.67-1.87,0-.13-.03-.25-.1-.35l-.79-1.9h0ZM56.57,64.57c.1-.89.22-3.55,2.69-3.55,2.18,0,2.28,2.25,2.28,3.55h-4.97ZM74.49,59.06c0-.35-.06-.44-.44-.44h-6.02c-.38,0-.44.1-.44.44v2.06c0,.35.06.44.44.44h2.44v12.25c0,.35.06.44.44.44h3.13c.38,0,.44-.1.44-.44v-14.76h0ZM75.06,53.93c0-1.46-1.17-2.6-2.6-2.6s-2.63,1.14-2.63,2.6,1.17,2.63,2.63,2.63,2.6-1.17,2.6-2.63h0ZM87.41,70.52c-.38.41-.92,1.11-2.34,1.11-2.06,0-2.66-1.52-2.66-5.1s.48-5.29,2.85-5.29c1.33,0,1.87.48,2.15.63v8.64h0ZM91.72,73.69c.16-.06.29-.16.29-.29,0-.63-.57-1.04-.57-4.12v-17.29c0-.54-.06-.67-.32-.67-.06,0-.35.1-.44.1l-2.66.54c-.38.1-.6.1-.6.57v6.49c-.51-.35-1.23-.95-2.94-.95-3.93,0-6.08,3.01-6.08,8.99,0,4.81,1.8,7.73,5.41,7.73,2.28,0,3.67-1.43,4.18-1.9.16.79.63,1.9.92,1.9.13,0,.28-.09.41-.13l2.41-.98h0ZM106.66,70.68c-.06-.13-.19-.25-.35-.25-.44,0-1.74,1.04-4.02,1.04-2.98,0-3.48-2.18-3.48-3.96h8.52c.6,0,.73-.19.73-.79,0-3.83-.95-8.64-6.33-8.64-4.24,0-6.93,3.48-6.93,8.52,0,5.83,2.91,8.2,7.09,8.2,2.5,0,5.67-1.04,5.67-1.87,0-.13-.03-.25-.1-.35l-.79-1.9h0ZM98.81,64.57c.1-.89.22-3.55,2.69-3.55,2.18,0,2.28,2.25,2.28,3.55h-4.97ZM120.25,64.63h5.38c.54,0,.66-.1.66-.67v-2.09c0-.57-.09-.67-.66-.67h-5.38v-5.22h6.14c.25,0,.6-.03.73-.51l.6-2.12c.06-.22.1-.29.1-.44,0-.29-.16-.35-.79-.35h-10.39c-.54,0-.66.1-.66.66v20.36c0,.57.13.66.66.66h2.98c.54,0,.63-.1.63-.66v-8.96h0ZM135.57,71.63c-2.22,0-2.6-2.25-2.6-5.19s.41-5.19,2.6-5.19,2.6,2.25,2.6,5.19-.38,5.19-2.6,5.19h0ZM142.44,66.44c0-5.1-2.63-8.36-6.87-8.36s-6.87,3.26-6.87,8.36,2.6,8.36,6.87,8.36,6.87-3.26,6.87-8.36h0ZM158.59,62.7c0-3.83-2.37-4.62-4.12-4.62-2.5,0-3.93,1.36-4.85,2.18-.35-1.49-.6-2.18-1.01-2.18-.13,0-.28.03-.47.1l-2.41.79c-.22.06-.35.19-.35.35,0,.73.6.48.6,4.94v9.56c0,.35.06.44.44.44h3.14c.38,0,.44-.1.44-.44v-11.11c.41-.38,1.46-1.3,2.79-1.3,1.61,0,1.77,1.46,1.77,2.66v9.75c0,.35.06.44.44.44h3.13c.38,0,.44-.1.44-.44v-11.11h0ZM171.16,70.52c-.38.41-.92,1.11-2.34,1.11-2.06,0-2.66-1.52-2.66-5.1s.47-5.29,2.85-5.29c1.33,0,1.87.48,2.15.63v8.64h0ZM175.47,73.69c.16-.06.29-.16.29-.29,0-.63-.57-1.04-.57-4.12v-17.29c0-.54-.06-.67-.32-.67-.06,0-.35.1-.44.1l-2.66.54c-.38.1-.6.1-.6.57v6.49c-.51-.35-1.24-.95-2.94-.95-3.93,0-6.08,3.01-6.08,8.99,0,4.81,1.81,7.73,5.41,7.73,2.28,0,3.67-1.43,4.18-1.9.16.79.63,1.9.92,1.9.13,0,.29-.09.41-.13l2.41-.98h0ZM189.18,60.04c.06-.13.16-.32.16-.41,0-.73-3.01-1.55-4.94-1.55-3.42,0-5.6,2.28-5.6,5.16,0,1.84.92,2.94,1.87,3.58,2.09,1.39,5.19,1.39,5.19,3.23,0,1.14-.89,1.58-1.93,1.58-1.96,0-4.4-1.39-4.53-1.39s-.19.13-.25.28l-.7,1.8c-.03.13-.16.32-.16.41,0,.86,3.61,2.06,5.95,2.06,3.36,0,5.42-2.18,5.42-5.1,0-1.84-.89-3.04-2.12-3.86-2.25-1.49-5.1-1.36-5.1-3.07,0-1.08.89-1.52,2.09-1.52,2.03,0,3.58.82,3.67.82.03,0,.19-.13.25-.29l.73-1.74h0ZM205.08,60.88h5.07c.44,0,.54-.09.54-.54v-2.09c0-.44-.1-.54-.54-.54h-5.07v-5.07c0-.44-.09-.54-.54-.54h-2.09c-.44,0-.54.09-.54.54v5.07h-5.07c-.41,0-.54.09-.54.54v2.09c0,.44.09.54.54.54h5.07v5.07c0,.44.1.54.54.54h2.09c.44,0,.54-.1.54-.54v-5.07h0Z" style="fill: #494948;"/>
  <path d="M30.89,93.96c.8-.58,1.64-1.05,2.63-1.19,2.94-.34,5.88-.75,8.83-.99,2.88-.24,5.73-.72,8.62-.92,4.24-.29,8.47-.83,12.71-1.14,2.31-.17,4.62-.39,6.93-.5,3.64-.17,7.27-.59,10.9-.75,2.42-.11,4.84-.34,7.26-.47,4.73-.25,9.47-.53,14.2-.8,1.67-.09,3.34-.1,5.01-.16,2.39-.09,4.78-.22,7.17-.29,3.82-.12,7.65-.28,11.46-.44,2.09-.09,4.17-.04,6.25-.15,4.71-.25,9.43-.25,14.15-.46,5.1-.23,10.2.05,15.3-.17,8.25-.36,16.51.06,24.76-.23,6.03-.21,12.05-.18,18.07-.1,3.11.04,6.22.09,9.33.13.53,0,1.11.2,1.15.58.04.34-.42.77-.93.94-2.38.79-4.82,1.22-7.33,1.21-2.91-.02-5.83.13-8.74-.02-6.88-.36-13.77-.28-20.65-.12-7.16.16-14.32-.09-21.47.19-4.38.18-8.76,0-13.13.17-4.2.17-8.4.29-12.59.43-3.62.13-7.24.24-10.85.39-3.72.16-7.44.29-11.17.43-3.24.12-6.47.3-9.71.4-4.09.12-8.18.34-12.26.61-2.38.16-4.77.25-7.15.42-3.67.26-7.35.42-11.02.72-2.17.18-4.35.36-6.52.5-2.72.18-5.42.52-8.14.77-1.77.16-3.54.3-5.31.44-2.44.19-4.88.42-7.31.75-2.56.35-5.14.6-7.71.91-.91.11-1.82.27-2.75.19,0-.42,0-.85,0-1.27h0Z" style="fill: #e5007d;"/>
  <path d="M249.09,63.73c-.72-3.78-1.8-7.49-2.47-11.28-.76-4.3-2.1-8.36-3.83-12.35-1.85-4.25-3.88-8.44-4.66-13.08-.06-.36-.34-.68-.54-1.06-.47,1.1-.85,2.05-1.28,2.98-2.25,4.83-4.46,9.68-5.55,14.94-.59,2.84-1,5.71-1.65,8.53-.34,1.48-.61,2.95-.83,4.43-.47-1.43-1.06-2.83-1.84-4.2-.77-1.36-1.23-2.9-1.74-4.39-.28-.82-.37-1.71-.55-2.57-.12-.04-.25-.09-.38-.13-.25.43-.53.85-.76,1.3-.95,1.82-1.83,3.68-2.83,5.48-2.49,4.47-3.72,9.26-3.89,14.35-.17,5.03,1.51,9.36,4.61,13.29,1.11,1.41,2.82,1.72,3.99,2.88.11.11.43.09.6.01.56-.25,1.19-.46,1.63-.86,1.47-1.35,2.41-2.95,2.99-4.69.98,3.22,2.29,6.33,4.12,9.26,1,1.6,1.92,3.25,2.89,4.88-2.91-.03-5.82-.08-8.72-.12-6.02-.08-12.04-.12-18.07.1-8.25.29-16.51-.13-24.76.23-5.09.23-10.2-.06-15.3.17-4.71.21-9.43.21-14.15.46-2.08.11-4.17.06-6.25.15-3.82.16-7.64.33-11.46.44-2.39.07-4.79.2-7.17.29-1.67.06-3.34.07-5.01.16-4.73.27-9.47.55-14.2.8-2.42.13-4.83.36-7.26.47-3.64.16-7.27.58-10.9.75-2.32.11-4.62.33-6.93.5-4.24.31-8.47.85-12.71,1.14-2.89.2-5.74.68-8.62.92-2.95.24-5.89.66-8.83.99-.99.14-1.84.61-2.63,1.19,0,.42,0,.85,0,1.27.93.09,1.84-.08,2.75-.19,2.57-.31,5.14-.56,7.71-.91,2.43-.33,4.87-.55,7.31-.75,1.77-.14,3.54-.28,5.31-.44,2.71-.25,5.42-.59,8.14-.77,2.18-.14,4.35-.32,6.52-.5,3.67-.31,7.35-.46,11.02-.72,2.38-.17,4.77-.26,7.15-.42,4.08-.27,8.17-.49,12.26-.61,3.24-.1,6.48-.28,9.71-.4,3.72-.14,7.45-.27,11.17-.43,3.62-.15,7.24-.26,10.86-.39,4.2-.15,8.4-.26,12.59-.43,4.38-.18,8.75,0,13.14-.17,7.15-.29,14.31-.03,21.47-.19,6.88-.16,13.76-.24,20.65.12,2.9.15,5.83,0,8.74.02,2.52.02,4.95-.42,7.33-1.21.36-.12.67-.36.82-.61.42-.2.82-.39,1.2-.56,2.44-1.13,4.59-2.67,6.01-4.98,1.92-3.14,3.07-6.59,3.65-10.22.69-4.33.26-8.64-.55-12.9h0ZM228.5,70.39c-.37,1.82-1.23,3.47-2.15,5.1-.93,1.64-1.82,3.3-2.79,5.08-2.7-2.22-5.06-4.73-5.61-8.56-.56-3.85-.11-7.62,1.05-11.24,1.31-4.09,3.06-8.03,4.66-12.12,1.13,2.36,2.3,4.48,3.18,6.7.49,1.25.88,2.54,1.19,3.85-.32,3.42-.26,6.85.32,10.32.05.29.11.57.16.86h0ZM242.94,75.86c-1.1,2.22-2.32,4.38-3.45,6.58-.77,1.5-1.5,3.02-2.25,4.53-.11.23-.26.45-.49.83-1.95-2.72-3.87-5.3-4.52-8.53-.66-3.25-1.29-6.52-1.7-9.8-.22-1.75-.06-3.58.15-5.34.53-4.5,1.08-9,1.81-13.47.65-3.95,1.5-7.87,2.36-11.77.51-2.31,1.21-4.59,1.84-6.87.19-.7.45-1.39.68-2.08.1,0,.19,0,.29.01.92,2.39,1.84,4.79,2.75,7.18.13.34.22.71.39,1.04,2.89,5.81,3.79,12.16,4.84,18.43,1.11,6.64.35,13.15-2.69,19.27h0Z" style="fill: #4ba32e;"/>
  <path d="M90.59,106.17c0-.1-.05-.15-.15-.15h-.83c-.1,0-.1.03-.14.13l-1.5,4.38c-.06.19-.11.52-.18.79h-.03c-.05-.28-.1-.6-.17-.79l-1.5-4.38c-.04-.1-.04-.13-.14-.13h-.83c-.1,0-.15.05-.15.15l-.48,8.39c0,.1.05.15.15.15h.74c.1,0,.15-.05.15-.15l.19-6.53c.01-.25,0-.57-.01-.79l.03-.03c.01.28.05.6.15.9l1.47,4.42c.04.12.08.14.19.14h.38c.11,0,.14-.02.19-.14l1.54-4.42c.1-.31.14-.62.15-.9l.03.03c-.01.22-.03.53-.01.79l.2,6.53c0,.1.05.15.15.15h.74c.1,0,.15-.05.15-.15l-.5-8.39h0ZM93.89,111.08c0-.64.25-1.86,1.42-1.86,1.11,0,1.32,1.19,1.32,1.86h-2.74ZM97.28,113.6s-.04-.08-.08-.08c-.08,0-.74.52-1.56.52-1.45,0-1.75-1.4-1.75-2.17h3.64c.14,0,.14-.1.14-.28,0-1.09-.19-3.15-2.31-3.15-1.58,0-2.51,1.36-2.51,3.22s.99,3.21,2.68,3.23c.94,0,2.01-.52,2.01-.66,0-.04-.03-.06-.04-.1l-.22-.53h0ZM99.77,114.56c0,.1.05.15.15.15h.66c.1,0,.15-.05.15-.15v-4.49c.32-.28.89-.77,1.72-.77.69,0,.83.48.83,1.03v4.24c0,.1.05.15.15.15h.66c.1,0,.15-.05.15-.15v-4.22c0-.91-.1-1.9-1.51-1.9-.93,0-1.59.53-2,.86v-3.62c0-.06,0-.17-.09-.17-.09.01-.05,0-.15.03l-.63.15c-.05.01-.09.06-.09.15v8.71h0ZM107.85,110.37c.3-.33.75-.99,1.19-.99.24,0,.35.11.42.11.05,0,.06-.06.08-.09l.28-.65s.04-.08.04-.1c0-.11-.33-.22-.62-.22-.74,0-1.19.71-1.52,1.07-.05-.28-.27-1.07-.49-1.07-.02,0-.08.02-.13.06l-.47.29s-.08.05-.09.13c0,.04.04.14.14.32.18.32.22.74.22.97v4.35c0,.1.05.15.15.15h.66c.1,0,.15-.05.15-.15v-4.19h0ZM116.61,109.92c.52-.36.76-.64,1.5-.64,1.03,0,1.13.99,1.13,1.97,0,1.32-.11,2.78-1.31,2.78-.56,0-1.03-.28-1.32-.48v-3.63h0ZM116.61,105.68c0-.06,0-.17-.09-.17-.09.01-.05,0-.15.03l-.63.15c-.05.01-.09.06-.09.15v7.32c0,.41-.09.7-.2.9-.09.21-.19.3-.19.37s.09.1.19.16l.32.2c.05.04.13.09.18.09.14,0,.34-.44.41-.62.41.39.88.62,1.76.62,1.69,0,2.17-1.78,2.17-3.61,0-1.56-.52-2.84-2.06-2.84-.59,0-1.27.29-1.61.65v-3.4h0ZM123.01,111.08c0-.64.25-1.86,1.42-1.86,1.11,0,1.32,1.19,1.32,1.86h-2.74ZM126.4,113.6s-.04-.08-.08-.08c-.08,0-.74.52-1.56.52-1.45,0-1.75-1.4-1.75-2.17h3.64c.14,0,.14-.1.14-.28,0-1.09-.19-3.15-2.31-3.15-1.57,0-2.51,1.36-2.51,3.22s.99,3.21,2.68,3.23c.94,0,2.01-.52,2.01-.66,0-.04-.02-.06-.04-.1l-.22-.53h0ZM135.53,108.92c.01-.05.03-.09.03-.13,0-.05-.05-.06-.11-.09l-.56-.15s-.05-.02-.1-.02c-.04,0-.09.04-.1.13l-1.08,4.33c-.03.11-.06.34-.08.5h-.03c-.02-.17-.05-.33-.09-.5l-1.04-4.24c-.02-.06-.04-.13-.15-.13h-.48c-.08,0-.15.02-.18.11l-1.21,4.09c-.05.15-.09.39-.14.7h-.03c-.03-.2-.08-.48-.13-.7l-.92-4.17c-.03-.09-.04-.13-.1-.13-.05,0-.06.02-.1.02l-.56.15c-.06.02-.12.04-.12.09,0,.04,0,.08.03.13l1.43,5.75c.01.05.04.13.14.13h.51c.1,0,.13-.06.14-.11l1.19-3.87c.1-.32.15-.58.19-.95h.02c.03.29.08.71.14.96l1,3.85s.04.13.16.13h.5c.11,0,.13-.08.15-.13l1.65-5.75h0ZM137.91,111.08c0-.64.25-1.86,1.42-1.86,1.1,0,1.32,1.19,1.32,1.86h-2.74ZM141.3,113.6s-.04-.08-.08-.08c-.08,0-.74.52-1.56.52-1.45,0-1.75-1.4-1.75-2.17h3.65c.14,0,.14-.1.14-.28,0-1.09-.19-3.15-2.31-3.15-1.57,0-2.51,1.36-2.51,3.22s.99,3.21,2.68,3.23c.94,0,2.01-.52,2.01-.66,0-.04-.03-.06-.04-.1l-.21-.53h0ZM147.97,110.31c0-.46.05-.62.16-.94.11-.3.23-.37.23-.47,0-.02,0-.04-.05-.08l-.57-.35s-.06-.02-.11-.02c-.11,0-.25.23-.37.54-.17-.13-.66-.54-1.5-.54-1.61,0-2.39,1.31-2.39,3.3,0,1.79.8,2.81,1.95,2.81.85,0,1.44-.46,1.73-.7,0,.15.04.67.04,1.31,0,.69-.14,1.37-1.32,1.37-.88,0-1.64-.49-1.74-.49-.05,0-.08.04-.09.08l-.2.43c-.04.08-.05.1-.05.17,0,.24,1.18.67,2.13.67,1.71,0,2.23-1.08,2.23-2.23,0-.69-.09-2.17-.09-2.88v-1.96h0ZM147,113.06c-.29.2-.83.63-1.49.63-.86,0-1.11-.85-1.11-2.2s.46-2.21,1.42-2.21c.51,0,.95.24,1.17.34v3.43h0ZM150.92,111.08c0-.64.25-1.86,1.42-1.86,1.11,0,1.32,1.19,1.32,1.86h-2.74ZM154.32,113.6s-.04-.08-.08-.08c-.08,0-.74.52-1.56.52-1.45,0-1.75-1.4-1.75-2.17h3.65c.14,0,.14-.1.14-.28,0-1.09-.19-3.15-2.31-3.15-1.57,0-2.51,1.36-2.51,3.22s.99,3.21,2.68,3.23c.94,0,2.01-.52,2.01-.66,0-.04-.03-.06-.04-.1l-.22-.53h0ZM161.27,110.34c0-.91-.1-1.9-1.51-1.9-.97,0-1.63.53-2.05.86-.01-.1-.17-.86-.39-.86-.04,0-.08.04-.1.05l-.57.32c-.05.04-.06.06-.06.09,0,.06.1.15.2.53.05.19.05.33.05.75v4.38c0,.1.05.15.15.15h.66c.1,0,.15-.05.15-.15v-4.49c.32-.28.85-.77,1.68-.77.69,0,.83.48.83,1.03v4.24c0,.1.05.15.15.15h.66c.1,0,.15-.05.15-.15v-4.22h0ZM169.52,108.81c0-.11-.03-.19-.16-.19h-1.79c-.1,0-.15.05-.15.15v.48c0,.1.05.15.15.15h.99v5.15c0,.1.05.15.15.15h.66c.1,0,.15-.05.15-.15v-5.75h0ZM169.74,106.38c0-.42-.34-.77-.77-.77s-.77.34-.77.77.34.77.77.77.77-.35.77-.77h0ZM172.24,114.56c0,.1.05.15.15.15h.66c.1,0,.15-.05.15-.15v-4.74c.22-.18.66-.53,1.23-.53.69,0,.83.48.83,1.03v4.24c0,.1.05.15.15.15h.66c.1,0,.15-.05.15-.15v-4.75c.25-.18.63-.52,1.24-.52.67,0,.81.48.81,1.03v4.24c0,.1.05.15.15.15h.66c.1,0,.15-.05.15-.15v-4.22c0-.91-.1-1.9-1.51-1.9-.61,0-1.3.48-1.68.76-.17-.51-.52-.76-1.35-.76-.53,0-1.32.44-1.65.75-.01-.09-.15-.75-.34-.75-.04,0-.09.04-.12.05l-.54.3c-.05.04-.06.06-.06.09,0,.06.1.14.17.43.06.29.08.6.08.89v4.35h0ZM191.33,106.17c0-.1-.05-.15-.15-.15h-.66c-.1,0-.15.05-.15.15v6.06c0,.23.08.51.11.77l-.02.03c-.11-.38-.15-.66-.3-.98l-2.81-5.92c-.04-.08-.09-.11-.19-.11h-.86c-.1,0-.15.06-.15.15v8.39c0,.1.05.15.15.15h.66c.1,0,.15-.05.15-.15v-6.2c0-.28-.03-.65-.13-1.13l.03-.02c.06.35.19.77.34,1.1l2.92,6.27c.05.09.1.13.2.13h.71c.1,0,.15-.06.15-.15v-8.39h0ZM197.53,110.22c0-1.07-.5-1.78-1.96-1.78-.81,0-1.98.37-1.98.58,0,.06.01.1.04.17l.16.44s.05.06.09.06c.12,0,.7-.41,1.55-.41.9,0,1.13.41,1.13,1.14v.46c-.79.03-3.33.06-3.33,2.21,0,1.13.65,1.79,1.65,1.79,1.05,0,1.68-.71,1.83-.85.06.18.29.85.48.85.02,0,.05-.01.1-.04l.49-.3c.05-.03.12-.05.12-.1,0-.08-.18-.32-.23-.47-.11-.36-.15-.47-.15-1.27v-2.49h0ZM196.57,113.32c-.2.18-.79.79-1.45.79s-.93-.57-.93-1.08c0-1.33,1.82-1.33,2.38-1.35v1.64h0ZM203.33,113.77s-.04-.08-.09-.08c-.11,0-.62.34-1.22.34-.76,0-.76-.52-.76-1.03v-3.61h1.68c.08,0,.14-.05.16-.11l.17-.49s.01-.06.01-.09c0-.08-.06-.09-.14-.09h-1.88v-1.96c0-.08,0-.14-.06-.14-.03,0-.05.01-.09.01l-.67.19c-.09.02-.14.08-.14.15v1.74h-.95c-.09,0-.09.06-.09.15v.48c0,.06,0,.15.09.15h.95v3.61c0,.47,0,1.04.37,1.43.19.24.65.44,1.19.44.69,0,1.64-.36,1.64-.52,0-.04-.01-.08-.02-.13l-.14-.47h0ZM208.4,113.39c-.24.23-1.05.65-1.45.65-.83,0-1.04-.48-1.04-1.03v-4.41c0-.06,0-.17-.09-.17-.09.01-.05,0-.15.02l-.63.15c-.05.01-.09.06-.09.15v4.22c0,.92.14,1.9,1.85,1.9.73,0,1.41-.46,1.77-.75.14.29.28.75.47.75.03,0,.05-.01.1-.04l.49-.3c.05-.03.11-.05.11-.1,0-.08-.16-.33-.24-.48-.13-.27-.14-.55-.14-.84v-4.52c0-.06,0-.17-.09-.17-.09.01-.05,0-.15.02l-.63.15c-.05.01-.09.06-.09.15v4.62h0ZM212.92,110.37c.31-.33.75-.99,1.19-.99.24,0,.35.11.42.11.05,0,.06-.06.08-.09l.28-.65s.04-.08.04-.1c0-.11-.33-.22-.62-.22-.74,0-1.19.71-1.52,1.07-.05-.28-.27-1.07-.49-1.07-.02,0-.08.02-.13.06l-.47.29s-.08.05-.09.13c0,.04.04.14.14.32.18.32.22.74.22.97v4.35c0,.1.05.15.15.15h.66c.1,0,.15-.05.15-.15v-4.19h0ZM217.49,109.91c.32-.25.85-.62,1.51-.62,1.03,0,1.12,1.21,1.12,2.27,0,1.23-.1,2.48-1.2,2.48-.63,0-1.03-.2-1.44-.42v-3.71h0ZM216.53,117.21c0,.06,0,.16.09.16.09-.01.05,0,.15-.03l.63-.15c.05-.01.09-.06.09-.15v-2.59c.34.22.78.43,1.55.43,1.47,0,2.12-1.52,2.12-3.35,0-1.58-.62-3.1-1.98-3.1-.94,0-1.56.53-1.87.75-.05-.2-.28-.75-.46-.75-.02,0-.05.01-.1.04l-.49.3c-.05.03-.11.05-.11.1,0,.08.18.32.23.47.15.46.15.79.15,1.27v6.59h0ZM227.12,110.22c0-1.07-.49-1.78-1.95-1.78-.81,0-1.98.37-1.98.58,0,.06.01.1.04.17l.16.44s.05.06.09.06c.11,0,.7-.41,1.55-.41.9,0,1.13.41,1.13,1.14v.46c-.79.03-3.33.06-3.33,2.21,0,1.13.65,1.79,1.65,1.79,1.06,0,1.68-.71,1.83-.85.06.18.29.85.48.85.03,0,.05-.01.1-.04l.49-.3c.05-.03.11-.05.11-.1,0-.08-.18-.32-.23-.47-.12-.36-.15-.47-.15-1.27v-2.49h0ZM226.16,113.32c-.2.18-.79.79-1.45.79s-.93-.57-.93-1.08c0-1.33,1.82-1.33,2.38-1.35v1.64h0ZM230.67,110.37c.3-.33.75-.99,1.19-.99.24,0,.36.11.42.11.05,0,.06-.06.08-.09l.28-.65s.04-.08.04-.1c0-.11-.33-.22-.62-.22-.74,0-1.19.71-1.52,1.07-.05-.28-.27-1.07-.49-1.07-.02,0-.08.02-.13.06l-.47.29s-.08.05-.09.13c0,.04.04.14.14.32.18.32.22.74.22.97v4.35c0,.1.05.15.15.15h.66c.1,0,.15-.05.15-.15v-4.19h0ZM236.21,111.44l2.15-2.37s.09-.09.09-.15c0-.05-.05-.06-.08-.09l-.44-.3c-.05-.02-.1-.08-.15-.08-.06,0-.1.06-.14.1l-2.53,2.87v-5.73c0-.06,0-.17-.09-.17-.09.01-.05,0-.15.03l-.63.15c-.05.01-.09.06-.09.15v8.71c0,.1.05.15.15.15h.66c.1,0,.15-.05.15-.15v-2.97h.03l2.59,3.2s.08.1.14.1c.05,0,.1-.05.15-.08l.45-.3s.08-.04.08-.09c0-.06-.06-.11-.09-.15l-2.23-2.83h0Z" style="fill: #3e8825;"/>
</svg>