<?xml version="1.0" encoding="UTF-8"?>
<svg xmlns="http://www.w3.org/2000/svg" viewBox="0 0 808.72 654.95">
  <g>
    <path
      d="m545.89,439.6h-62.97c-4.26,0-7.91,3.04-8.52,7.3l-25.56,161.22c-.61,3.05,1.83,6.09,5.17,6.09h32.25c3.04,0,5.48-2.13,6.09-5.17l7.3-45.63c.61-4.26,4.26-7.3,8.52-7.3h19.77c41.37,0,65.41-20.08,71.49-59.93,2.74-17.34,0-31.03-7.91-40.46-8.82-10.65-24.64-16.12-45.63-16.12h0Zm7.3,59.02c-3.34,22.51-20.68,22.51-37.42,22.51h-9.43l6.69-42.29c.31-2.43,2.74-4.56,5.17-4.56h4.27c11.25,0,22.2,0,27.68,6.39,3.35,4.26,4.26,9.73,3.04,17.95Z"
      style="fill: #fff; fill-rule: evenodd; stroke-width: 0px;" />
    <path
      d="m97.14,439.6h-62.97c-4.26,0-7.91,3.04-8.52,7.3L.09,608.13c-.61,3.05,1.82,6.09,5.17,6.09h30.12c4.26,0,7.91-3.04,8.52-7.3l6.99-43.5c.61-4.26,4.27-7.3,8.52-7.3h19.78c41.37,0,65.4-20.08,71.49-59.93,2.74-17.34,0-31.03-7.91-40.46-8.52-10.65-24.34-16.12-45.63-16.12h0Zm7.3,59.02c-3.35,22.51-20.69,22.51-37.42,22.51h-9.43l6.69-42.29c.3-2.43,2.74-4.56,5.17-4.56h4.26c11.26,0,22.21,0,27.69,6.39,3.34,4.26,4.25,9.73,3.04,17.95Z"
      style="fill: #fff; fill-rule: evenodd; stroke-width: 0px;" />
    <path
      d="m285.17,497.89h-30.12c-2.44,0-4.87,1.83-5.17,4.56l-1.22,8.52-2.13-3.04c-6.39-9.43-20.99-12.78-35.59-12.78-33.16,0-61.76,25.25-67.23,60.54-2.73,17.65,1.22,34.38,11.26,46.24,9.13,10.96,22.21,15.22,38.03,15.22,26.77,0,41.67-17.35,41.67-17.35l-1.21,8.53c-.61,3.04,1.82,6.08,5.17,6.08h27.07c4.27,0,7.91-3.04,8.52-7.3l16.43-103.12c.31-3.35-2.13-6.09-5.47-6.09h0Zm-41.98,58.41c-3.05,17.34-16.44,28.9-34.08,28.9-8.82,0-15.82-2.73-20.08-8.21-4.56-5.17-6.08-12.78-4.86-21.3,2.73-17.03,16.73-28.9,33.76-28.9,8.52,0,15.52,2.74,20.08,8.22,4.87,5.47,6.69,13.08,5.18,21.29Z"
      style="fill: #fff; fill-rule: evenodd; stroke-width: 0px;" />
    <path
      d="m733.93,497.89h-30.12c-2.43,0-4.87,1.83-5.17,4.56l-1.21,8.52-2.14-3.04c-6.38-9.43-20.99-12.78-35.59-12.78-33.16,0-61.75,25.25-67.23,60.54-2.74,17.65,1.21,34.38,11.25,46.24,9.13,10.96,22.21,15.22,38.03,15.22,26.77,0,41.68-17.35,41.68-17.35l-1.22,8.53c-.6,3.04,1.83,6.08,5.18,6.08h27.07c4.26,0,7.91-3.04,8.52-7.3l16.43-103.12c.3-3.35-2.13-6.09-5.48-6.09h0Zm-41.98,58.41c-3.04,17.34-16.43,28.9-34.08,28.9-8.82,0-15.82-2.73-20.07-8.21-4.57-5.17-6.09-12.78-4.87-21.3,2.74-17.03,16.73-28.9,33.77-28.9,8.51,0,15.51,2.74,20.08,8.22,4.56,5.47,6.38,13.08,5.17,21.29Z"
      style="fill: #fff; fill-rule: evenodd; stroke-width: 0px;" />
    <path
      d="m445.65,497.67h-30.42c-3.04,0-5.48,1.52-7.3,3.95l-41.38,61.45-17.64-59.02c-1.22-3.65-4.56-6.38-8.52-6.38h-29.81c-3.65,0-6.09,3.65-4.87,6.99l33.47,97.95-31.34,44.11c-2.43,3.35,0,8.22,4.26,8.22h30.12c2.73,0,5.47-1.52,7.3-3.65l100.69-145.41c2.13-3.35-.31-8.21-4.57-8.21Z"
      style="fill: #fff; fill-rule: evenodd; stroke-width: 0px;" />
    <path
      d="m769.38,443.92l-25.86,164.26c-.61,3.05,1.83,6.09,5.17,6.09h25.86c4.26,0,7.91-3.04,8.52-7.3l25.55-161.23c.07-.34.09-.66.09-.99-.03-2.68-2.29-5.09-5.27-5.09h-28.9c-2.44,0-4.57,1.82-5.17,4.26Z"
      style="fill: #fff; fill-rule: evenodd; stroke-width: 0px;" />
  </g>
  <g>
    <path
      d="m563.05,98.85c-4.02-2.14-8.4-3.98-13.09-5.53-1.18-.4-2.37-.77-3.59-1.12-2.43-.71-4.95-1.36-7.53-1.93-2.59-.57-5.25-1.08-7.98-1.52-9.58-1.54-20.04-2.27-31.27-2.27h-94.79c-2.33,0-4.55.53-6.53,1.48-4.38,2.09-7.61,6.24-8.42,11.29l-20.14,127.73-.59,3.73-18.17,115.18-5.15,32.67c-.87,5.51,3.39,10.49,8.97,10.49h62.92c7.44,0,13.79-5.42,14.95-12.77l.62-3.2,11.86-75.16.76-4.16c1.16-7.36,7.5-12.78,14.95-12.78h9.41c60.97,0,108.69-24.77,122.64-96.38,5.83-29.93,2.81-54.91-12.59-72.48-4.66-5.31-10.46-9.7-17.23-13.28Z"
      style="fill: #fff; fill-rule: evenodd; stroke-width: 0px;" />
    <path
      d="m563.06,98.85c4.74-30.27-.03-50.86-16.4-69.51C528.63,8.8,496.07,0,454.41,0h-120.92c-8.51,0-15.76,6.2-17.08,14.61l-50.35,319.29c-.99,6.3,3.88,12,10.25,12h74.65l18.76-118.91-.58,3.73c1.32-8.41,8.51-14.61,17.02-14.61h35.48c69.68,0,124.24-28.31,140.19-110.18.47-2.42.88-4.77,1.24-7.08Z"
      style="fill: #fff; fill-rule: evenodd; stroke-width: 0px;" />
    <path
      d="m389.85,99.25c.8-5.05,4.05-9.2,8.42-11.29,1.99-.95,4.21-1.49,6.53-1.49h94.79c11.22,0,21.69.74,31.27,2.28,2.74.44,5.39.94,7.98,1.52,2.59.58,5.1,1.21,7.53,1.93,1.21.36,2.41.72,3.59,1.12,4.7,1.56,9.07,3.4,13.1,5.54,4.74-30.27-.03-50.86-16.4-69.51C528.63,8.8,496.07,0,454.41,0h-120.92c-8.51,0-15.76,6.2-17.08,14.61l-50.35,319.29c-.99,6.3,3.88,12,10.25,12h74.65l18.76-118.91,20.14-127.73Z"
      style="fill: #fff; fill-rule: evenodd; stroke-width: 0px;" />
  </g>
</svg>
